<svg width="14" height="14" viewBox="0 0 14 14" fill="none" xmlns="http://www.w3.org/2000/svg">
<path d="M6.53834 1.00376C6.70914 0.593118 7.29086 0.593117 7.46166 1.00376L8.99874 4.69936C9.07075 4.87247 9.23355 4.99076 9.42045 5.00574L13.4102 5.3256C13.8535 5.36114 14.0332 5.91439 13.6955 6.20373L10.6557 8.80758C10.5133 8.92956 10.4512 9.12095 10.4947 9.30332L11.4234 13.1966C11.5265 13.6292 11.0559 13.9711 10.6764 13.7393L7.26063 11.653C7.10062 11.5553 6.89938 11.5553 6.73937 11.653L3.32363 13.7393C2.94408 13.9711 2.47345 13.6292 2.57665 13.1966L3.50534 9.30332C3.54884 9.12095 3.48665 8.92956 3.34426 8.80758L0.304527 6.20373C-0.0332418 5.91439 0.14652 5.36114 0.589847 5.3256L4.57955 5.00574C4.76645 4.99076 4.92925 4.87247 5.00126 4.69936L6.53834 1.00376Z" fill="#343839"/>
</svg>
